<svg width="48" height="48" viewBox="0 0 48 48" fill="none" xmlns="http://www.w3.org/2000/svg">
<path d="M24 0C10.74 0 0 10.74 0 24C0 37.26 10.74 48 24 48C37.26 48 48 37.26 48 24C48 10.74 37.26 0 24 0ZM33.63 26.37C33.63 26.76 33.45 27.09 33.18 27.33L24.78 34.26C24.3 34.65 23.64 34.65 23.16 34.26L14.79 27.33C14.49 27.09 14.34 26.73 14.34 26.37V16.53C14.34 15.48 15.57 14.88 16.41 15.57L23.19 21.15C23.67 21.54 24.33 21.54 24.81 21.15L31.59 15.57C32.4 14.88 33.66 15.48 33.66 16.53L33.63 26.37Z" fill="white"/>
</svg>
